<svg width="45" height="38" viewBox="0 0 45 38" fill="none" xmlns="http://www.w3.org/2000/svg">
<path d="M23.2665 22.7067V28.0312C23.2665 28.4585 22.9169 28.8082 22.4896 28.8082C22.0597 28.8082 21.7126 28.4586 21.7126 28.0312V22.704C20.6948 22.5383 19.7832 22.054 19.084 21.3574C18.2113 20.4872 17.67 19.2778 17.67 17.9492C17.67 16.6207 18.2087 15.4164 19.0815 14.5437C19.9568 13.6709 21.161 13.1297 22.4896 13.1297C23.8181 13.1297 25.0224 13.6709 25.8951 14.5411C26.7705 15.4164 27.3092 16.6207 27.3092 17.9492C27.3092 19.2778 26.7679 20.4872 25.8718 21.3807C25.1545 22.0774 24.261 22.5435 23.2665 22.7067ZM22.4895 3.93582C16.1472 3.93582 9.79936 2.84038 3.73704 0.652001C2.72188 0.683079 1.80245 1.11039 1.1343 1.78113C0.432464 2.48296 0 3.44893 0 4.51076V34.1382C0 35.2026 0.435082 36.1686 1.13171 36.8652C1.83355 37.5671 2.79951 37.9995 3.86135 37.9995H41.1204C42.1848 37.9995 43.1507 37.5644 43.8474 36.8678C44.5492 36.166 44.9817 35.2 44.9817 34.1382V4.51076C44.9817 3.44634 44.5466 2.48038 43.85 1.78371C43.1767 1.11039 42.2573 0.683027 41.2421 0.649414C35.1794 2.83779 28.8317 3.93324 22.4896 3.93324L22.4895 3.93582Z" fill="white"/>
</svg>
