<svg width="32" height="27" viewBox="0 0 32 27" fill="none" xmlns="http://www.w3.org/2000/svg">
<path d="M2.95086 7.2941C3.70637 6.1439 4.28836 5.60526 5.27131 4.64216C6.12382 3.80687 6.60533 3.32512 7.59175 2.65321C8.78796 1.8384 9.54108 1.47534 10.9067 0.995754C11.9139 0.642031 12.5091 0.528072 13.5586 0.33277C14.5847 0.141825 15.1669 0.0155746 16.2105 0.0012786C17.3827 -0.0147784 18.0408 0.121788 19.194 0.33277C20.2441 0.5249 20.8474 0.618227 21.8459 0.995754C23.0926 1.46711 23.7395 1.88593 24.8293 2.65321C25.8052 3.3403 26.2973 3.80687 27.1498 4.64216C28.1327 5.60526 28.7677 6.11076 29.4702 7.2941C29.9735 8.14188 30.1101 8.6946 30.4647 9.61454C30.9064 10.7605 31.1901 11.3997 31.4592 12.598C31.8572 14.3708 31.7907 17.2389 31.7907 17.2389V24.8632L26.8183 26.1891C26.8183 26.1891 27.2934 19.8978 26.8183 15.9129C26.6318 14.3491 26.6765 13.4211 26.1553 11.935C25.7721 10.8424 25.5241 10.2094 24.8293 9.28305C24.2801 8.55074 23.8655 8.2229 23.1719 7.62559C22.328 6.89893 21.8345 6.49131 20.8514 5.96813C19.875 5.4485 19.2813 5.2041 18.1995 4.97366C16.6801 4.65 15.741 4.65 14.2216 4.97366C13.1398 5.2041 12.5461 5.4485 11.5697 5.96813C10.5866 6.49131 10.0931 6.89893 9.24921 7.62559C8.55556 8.2229 8.14098 8.55074 7.59175 9.28305C6.89702 10.2094 6.64902 10.8424 6.26578 11.935C5.74453 13.4211 5.78925 14.3491 5.6028 15.9129C5.12768 19.8978 5.6028 26.1891 5.6028 26.1891L0.630422 24.8632V17.2389C0.630422 17.2389 0.599426 14.3784 0.961914 12.598C1.40323 10.4303 1.73638 9.14304 2.95086 7.2941Z" fill="white"/>
</svg>
