<svg width="70" height="70" viewBox="0 0 70 70" fill="none" xmlns="http://www.w3.org/2000/svg">
<circle cx="35" cy="35" r="35" fill="#44AAB6"/>
<path d="M46.4672 47.2331C47.3675 45.8943 47.0107 44.0721 45.6719 43.1718L39.9937 39.3531C41.6122 37.8609 43.2555 35.9122 44.6991 33.7656C48.3419 28.3488 50.6755 21.5593 47.8251 19.6423C44.975 17.7276 39.5658 22.4488 35.923 27.8657C34.4792 30.0126 33.2943 32.2694 32.5228 34.331L26.8446 30.5124C25.5058 29.6121 23.6836 29.9689 22.7832 31.3077L20.3399 34.9408C19.7882 35.4806 14.9403 40.1223 10.6316 41.1638C10.3128 41.2413 10.0699 41.4983 10.0122 41.8215C9.95444 42.1447 10.0929 42.4713 10.3649 42.6542L16.0685 46.4899C16.0685 46.4899 18.3874 46.8388 20.9118 46.4189C20.9118 46.4189 19.6399 47.8154 18.1699 47.9031L27.047 53.8729C27.047 53.8729 30.9988 54.4792 32.9995 53.8512C32.9995 53.8512 31.998 54.8223 29.62 55.6033L33.9085 58.4873C34.0907 58.6098 34.3136 58.6546 34.5288 58.6125C37.5995 58.0112 43.9621 50.955 43.9745 50.9365L46.4672 47.2331ZM24.158 32.2302C24.5492 31.6486 25.3413 31.4924 25.9242 31.8844L32.4925 36.3035C32.7083 36.4486 32.9805 36.4838 33.2268 36.3983C33.473 36.3128 33.6637 36.1161 33.7418 35.8669C34.4287 33.6878 35.6913 31.1737 37.2945 28.7897C41.378 22.7176 45.6408 20.17 46.9005 21.0172C48.1603 21.8644 47.4086 26.7732 43.3252 32.8453C41.7209 35.2307 39.8697 37.3468 38.1106 38.805C37.9093 38.9712 37.799 39.2221 37.8127 39.4824C37.8265 39.7427 37.9617 39.9815 38.1774 40.1266L44.7466 44.5444C45.3283 44.9355 45.4845 45.7276 45.0925 46.3106L43.0647 49.3259L22.1292 35.2468L24.158 32.2302ZM40.7863 51.8866C39.6057 51.1764 38.5458 51.0884 37.5146 51.0099C36.3875 50.9234 35.324 50.8407 33.8879 49.9722C32.2882 49.0054 32.25 48.8279 32.126 48.2424C32.0073 47.6838 31.8276 46.8369 30.9403 45.3722C28.9727 42.1281 25.5192 42.2248 23.6652 42.2761C23.37 42.2838 23.1052 42.2926 22.8804 42.2854C21.3469 42.239 20.5204 41.6909 20.0258 40.3949C19.6893 39.5147 19.1446 38.9791 18.5765 38.6632C19.6801 37.7978 20.5612 37.0086 21.0733 36.5278L42.0249 50.6177C41.6412 51.0233 41.2225 51.4521 40.7863 51.8866Z" fill="white"/>
<path d="M44.873 24.0326C44.1788 23.5658 43.233 23.751 42.7661 24.4452C42.2993 25.1394 42.4845 26.0852 43.1787 26.5521C43.8729 27.0189 44.8187 26.8337 45.2856 26.1395C45.7524 25.4453 45.5686 24.5004 44.873 24.0326Z" fill="white"/>
</svg>
